<svg width="185" height="185" viewBox="0 0 185 185" fill="none" xmlns="http://www.w3.org/2000/svg">
<rect width="185" height="185" rx="92.5" fill="#FF6D00"/>
<path d="M37.9167 156.083V57.8334C37.9167 54.8313 38.9856 52.2613 41.1234 50.1235C43.2613 47.9856 45.8312 46.9167 48.8333 46.9167H136.167C139.169 46.9167 141.739 47.9856 143.877 50.1235C146.014 52.2613 147.083 54.8313 147.083 57.8334V123.333C147.083 126.335 146.014 128.905 143.877 131.043C141.739 133.181 139.169 134.25 136.167 134.25H59.75L37.9167 156.083Z" fill="white"/>
<path d="M101.086 103.34L113.965 90.4607L101.086 77.5815M83.9139 77.5815L71.0346 90.4607L83.9139 103.34" stroke="#FF6D00" stroke-width="4" stroke-linecap="round" stroke-linejoin="round"/>
</svg>
